<svg fill="none" height="48" viewBox="0 0 48 48" width="48" xmlns="http://www.w3.org/2000/svg"><path d="m0 0h48v48h-48z" fill="#fff" fill-opacity=".01"/><path d="m48 0h-48v48h48z" fill="#fff" fill-opacity=".01"/><g stroke-linejoin="round" stroke-width="4"><path d="m40.0005 4h-31.99981c-1.10455 0-1.99998.89541-2 1.99996l-.00065 36.00004c-.00002 1.1045.89542 2 2 2h32.00046c1.1046 0 2-.8954 2-2v-36c0-1.10457-.8954-2-2-2z" fill="#2f88ff" stroke="#000"/><path d="m35 10h-22v9h22z" fill="#43ccf8" stroke="#fff"/><path d="m12 28 7 7" stroke="#fff" stroke-linecap="round"/><path d="m19 28-7 7" stroke="#fff" stroke-linecap="round"/><path d="m28 35h8" stroke="#fff" stroke-linecap="round"/><path d="m28 29h8" stroke="#fff" stroke-linecap="round"/></g></svg>